<svg width="378" height="378" viewBox="0 0 378 378" fill="none" xmlns="http://www.w3.org/2000/svg">
<g clip-path="url(#clip0_1_236)">
<path d="M189.292 0H188.708V2.91667H189.292V0Z" fill="white" fill-opacity="0.5"/>
<path d="M219.069 1.78596L218.602 4.67346L219.18 4.7668L219.646 1.8793L219.069 1.78596Z" fill="white" fill-opacity="0.5"/>
<path d="M247.127 9.1609L246.226 11.9348L246.781 12.1151L247.682 9.34116L247.127 9.1609Z" fill="white" fill-opacity="0.5"/>
<path d="M274.543 20.4638L273.219 23.0626L273.739 23.3274L275.063 20.7286L274.543 20.4638Z" fill="white" fill-opacity="0.5"/>
<path d="M300.557 35.7089L298.837 38.0714L299.309 38.4156L301.03 36.0531L300.557 35.7089Z" fill="white" fill-opacity="0.5"/>
<path d="M322.437 55.1574L320.375 57.2198L320.787 57.6323L322.85 55.5699L322.437 55.1574Z" fill="white" fill-opacity="0.5"/>
<path d="M341.737 77.6721L339.377 79.3865L339.72 79.8584L342.079 78.144L341.737 77.6721Z" fill="white" fill-opacity="0.5"/>
<path d="M357.27 102.936L354.671 104.26L354.936 104.78L357.535 103.455L357.27 102.936Z" fill="white" fill-opacity="0.5"/>
<path d="M368.656 130.317L365.882 131.218L366.062 131.773L368.836 130.871L368.656 130.317Z" fill="white" fill-opacity="0.5"/>
<path d="M375.626 159.149L372.745 159.605L372.836 160.181L375.717 159.725L375.626 159.149Z" fill="white" fill-opacity="0.5"/>
<path d="M378 188.708H375.083V189.292H378V188.708Z" fill="white" fill-opacity="0.5"/>
<path d="M372.837 217.82L372.746 218.396L375.627 218.852L375.718 218.276L372.837 217.82Z" fill="white" fill-opacity="0.5"/>
<path d="M366.067 246.229L365.886 246.784L368.66 247.685L368.841 247.13L366.067 246.229Z" fill="white" fill-opacity="0.5"/>
<path d="M354.935 273.218L354.67 273.737L357.269 275.061L357.534 274.542L354.935 273.218Z" fill="white" fill-opacity="0.5"/>
<path d="M339.715 298.139L339.372 298.611L341.731 300.325L342.074 299.853L339.715 298.139Z" fill="white" fill-opacity="0.5"/>
<path d="M320.783 320.372L320.371 320.784L322.433 322.847L322.846 322.434L320.783 320.372Z" fill="white" fill-opacity="0.5"/>
<path d="M298.609 339.374L298.137 339.717L299.852 342.076L300.324 341.734L298.609 339.374Z" fill="white" fill-opacity="0.5"/>
<path d="M273.741 354.668L273.222 354.933L274.546 357.531L275.066 357.267L273.741 354.668Z" fill="white" fill-opacity="0.5"/>
<path d="M246.779 365.88L246.224 366.06L247.125 368.834L247.68 368.654L246.779 365.88Z" fill="white" fill-opacity="0.5"/>
<path d="M218.396 372.746L217.82 372.837L218.276 375.718L218.853 375.626L218.396 372.746Z" fill="white" fill-opacity="0.5"/>
<path d="M189.292 375.083H188.708V378H189.292V375.083Z" fill="white" fill-opacity="0.5"/>
<path d="M159.604 372.745L159.147 375.626L159.724 375.717L160.18 372.836L159.604 372.745Z" fill="white" fill-opacity="0.5"/>
<path d="M131.218 365.884L130.317 368.658L130.871 368.838L131.773 366.064L131.218 365.884Z" fill="white" fill-opacity="0.5"/>
<path d="M104.26 354.669L102.936 357.268L103.456 357.533L104.78 354.934L104.26 354.669Z" fill="white" fill-opacity="0.5"/>
<path d="M79.3861 339.37L77.6717 341.73L78.1436 342.073L79.858 339.713L79.3861 339.37Z" fill="white" fill-opacity="0.5"/>
<path d="M57.213 320.368L55.1506 322.43L55.5631 322.843L57.6255 320.78L57.213 320.368Z" fill="white" fill-opacity="0.5"/>
<path d="M38.2847 298.141L35.9251 299.855L36.268 300.327L38.6276 298.613L38.2847 298.141Z" fill="white" fill-opacity="0.5"/>
<path d="M23.0687 273.224L20.4699 274.548L20.7347 275.068L23.3335 273.744L23.0687 273.224Z" fill="white" fill-opacity="0.5"/>
<path d="M11.9366 246.228L9.16272 247.129L9.34298 247.684L12.1169 246.783L11.9366 246.228Z" fill="white" fill-opacity="0.5"/>
<path d="M5.16445 217.82L2.28369 218.277L2.37494 218.853L5.2557 218.396L5.16445 217.82Z" fill="white" fill-opacity="0.5"/>
<path d="M2.91667 188.708H0V189.292H2.91667V188.708Z" fill="white" fill-opacity="0.5"/>
<path d="M2.37403 159.146L2.28278 159.722L5.16353 160.179L5.25479 159.603L2.37403 159.146Z" fill="white" fill-opacity="0.5"/>
<path d="M9.3381 130.314L9.15784 130.869L11.9318 131.77L12.112 131.215L9.3381 130.314Z" fill="white" fill-opacity="0.5"/>
<path d="M20.73 102.935L20.4651 103.454L23.0639 104.779L23.3287 104.259L20.73 102.935Z" fill="white" fill-opacity="0.5"/>
<path d="M36.2673 77.6758L35.9244 78.1477L38.284 79.8621L38.6269 79.3901L36.2673 77.6758Z" fill="white" fill-opacity="0.5"/>
<path d="M55.5671 55.1534L55.1546 55.5659L57.217 57.6283L57.6295 57.2158L55.5671 55.1534Z" fill="white" fill-opacity="0.5"/>
<path d="M78.3039 35.7824L77.8314 36.1266L79.5523 38.4891L80.0248 38.1449L78.3039 35.7824Z" fill="white" fill-opacity="0.5"/>
<path d="M103.453 20.4666L102.933 20.7314L104.257 23.3302L104.777 23.0653L103.453 20.4666Z" fill="white" fill-opacity="0.5"/>
<path d="M130.873 9.16105L130.319 9.34131L131.22 12.1152L131.775 11.935L130.873 9.16105Z" fill="white" fill-opacity="0.5"/>
<path d="M159.725 2.28393L159.148 2.37518L159.605 5.25594L160.181 5.16469L159.725 2.28393Z" fill="white" fill-opacity="0.5"/>
<path d="M189.292 0H188.708V2.91667H189.292V0Z" fill="white" fill-opacity="0.5"/>
</g>
<defs>
<clipPath id="clip0_1_236">
<rect width="378" height="378" fill="white"/>
</clipPath>
</defs>
</svg>
